<?xml version="1.0" encoding="UTF-8" standalone="no"?>
<!DOCTYPE svg PUBLIC "-//W3C//DTD SVG 1.1//EN"
 "http://www.w3.org/Graphics/SVG/1.1/DTD/svg11.dtd">
<!-- Generated by graphviz version 2.40.1 (20161225.0304)
 -->
<!-- Title: G Pages: 1 -->
<svg width="278pt" height="210pt"
 viewBox="0.00 0.00 278.00 210.00" xmlns="http://www.w3.org/2000/svg" xmlns:xlink="http://www.w3.org/1999/xlink">
<g id="graph0" class="graph" transform="scale(1 1) rotate(0) translate(4 206)">
<title>G</title>
<polygon fill="#ffffff" stroke="transparent" points="-4,4 -4,-206 274,-206 274,4 -4,4"/>
<text text-anchor="middle" x="135" y="-6.8" font-family="Times,serif" font-size="14.00" fill="#000000">Optimal vs. Greedy path</text>
<!-- 5 -->
<g id="node1" class="node">
<title>5</title>
<ellipse fill="none" stroke="#000000" cx="135" cy="-184" rx="27" ry="18"/>
<text text-anchor="middle" x="135" y="-179.8" font-family="Times,serif" font-size="14.00" fill="#000000">5</text>
</g>
<!-- 3 -->
<g id="node2" class="node">
<title>3</title>
<ellipse fill="none" stroke="#000000" cx="99" cy="-112" rx="27" ry="18"/>
<text text-anchor="middle" x="99" y="-107.8" font-family="Times,serif" font-size="14.00" fill="#000000">3</text>
</g>
<!-- 5&#45;&#45;3 -->
<g id="edge1" class="edge">
<title>5&#45;&#45;3</title>
<path fill="none" stroke="#b8e986" stroke-width="2" d="M126.2854,-166.5708C120.6253,-155.2506 113.2784,-140.5568 107.6343,-129.2687"/>
</g>
<!-- 7 -->
<g id="node3" class="node">
<title>7</title>
<ellipse fill="none" stroke="#000000" cx="171" cy="-112" rx="27" ry="18"/>
<text text-anchor="middle" x="171" y="-107.8" font-family="Times,serif" font-size="14.00" fill="#000000">7</text>
</g>
<!-- 5&#45;&#45;7 -->
<g id="edge2" class="edge">
<title>5&#45;&#45;7</title>
<path fill="none" stroke="#ff5252" stroke-width="2" d="M143.7146,-166.5708C149.3747,-155.2506 156.7216,-140.5568 162.3657,-129.2687"/>
</g>
<!-- 87 -->
<g id="node4" class="node">
<title>87</title>
<ellipse fill="none" stroke="#000000" cx="27" cy="-40" rx="27" ry="18"/>
<text text-anchor="middle" x="27" y="-35.8" font-family="Times,serif" font-size="14.00" fill="#000000">87</text>
</g>
<!-- 3&#45;&#45;87 -->
<g id="edge3" class="edge">
<title>3&#45;&#45;87</title>
<path fill="none" stroke="#b8e986" stroke-width="2" d="M83.7307,-96.7307C71.512,-84.512 54.4602,-67.4602 42.2473,-55.2473"/>
</g>
<!-- 1 -->
<g id="node5" class="node">
<title>1</title>
<ellipse fill="none" stroke="#000000" cx="99" cy="-40" rx="27" ry="18"/>
<text text-anchor="middle" x="99" y="-35.8" font-family="Times,serif" font-size="14.00" fill="#000000">1</text>
</g>
<!-- 3&#45;&#45;1 -->
<g id="edge4" class="edge">
<title>3&#45;&#45;1</title>
<path fill="none" stroke="#000000" d="M99,-93.8314C99,-83 99,-69.2876 99,-58.4133"/>
</g>
<!-- 2 -->
<g id="node6" class="node">
<title>2</title>
<ellipse fill="none" stroke="#000000" cx="171" cy="-40" rx="27" ry="18"/>
<text text-anchor="middle" x="171" y="-35.8" font-family="Times,serif" font-size="14.00" fill="#000000">2</text>
</g>
<!-- 7&#45;&#45;2 -->
<g id="edge5" class="edge">
<title>7&#45;&#45;2</title>
<path fill="none" stroke="#000000" d="M171,-93.8314C171,-83 171,-69.2876 171,-58.4133"/>
</g>
<!-- 4 -->
<g id="node7" class="node">
<title>4</title>
<ellipse fill="none" stroke="#000000" cx="243" cy="-40" rx="27" ry="18"/>
<text text-anchor="middle" x="243" y="-35.8" font-family="Times,serif" font-size="14.00" fill="#000000">4</text>
</g>
<!-- 7&#45;&#45;4 -->
<g id="edge6" class="edge">
<title>7&#45;&#45;4</title>
<path fill="none" stroke="#ff5252" stroke-width="2" d="M186.2693,-96.7307C198.488,-84.512 215.5398,-67.4602 227.7527,-55.2473"/>
</g>
</g>
</svg>
