<?xml version="1.0" encoding="UTF-8" standalone="no"?>
<!DOCTYPE svg PUBLIC "-//W3C//DTD SVG 1.1//EN"
 "http://www.w3.org/Graphics/SVG/1.1/DTD/svg11.dtd">
<!-- Generated by graphviz version 2.40.1 (20161225.0304)
 -->
<!-- Title: g Pages: 1 -->
<svg width="765pt" height="177pt"
 viewBox="0.00 0.00 764.78 177.00" xmlns="http://www.w3.org/2000/svg" xmlns:xlink="http://www.w3.org/1999/xlink">
<g id="graph0" class="graph" transform="scale(1 1) rotate(0) translate(4 173)">
<title>g</title>
<polygon fill="#ffffff" stroke="transparent" points="-4,4 -4,-173 760.7806,-173 760.7806,4 -4,4"/>
<!-- art -->
<g id="node1" class="node">
<title>art</title>
<polygon fill="none" stroke="#000000" points="282.2806,-146.5 282.2806,-168.5 358.2806,-168.5 358.2806,-146.5 282.2806,-146.5"/>
<text text-anchor="middle" x="295.3358" y="-153.3" font-family="Times,serif" font-size="14.00" fill="#000000">A</text>
<polyline fill="none" stroke="#000000" points="308.391,-146.5 308.391,-168.5 "/>
<text text-anchor="middle" x="321.0599" y="-153.3" font-family="Times,serif" font-size="14.00" fill="#000000">R</text>
<polyline fill="none" stroke="#000000" points="333.7289,-146.5 333.7289,-168.5 "/>
<text text-anchor="middle" x="346.0048" y="-153.3" font-family="Times,serif" font-size="14.00" fill="#000000">T</text>
</g>
<!-- art1 -->
<g id="node2" class="node">
<title>art1</title>
<polygon fill="none" stroke="#000000" points="72.2806,-73.5 72.2806,-95.5 148.2806,-95.5 148.2806,-73.5 72.2806,-73.5"/>
<text text-anchor="middle" x="85.3358" y="-80.3" font-family="Times,serif" font-size="14.00" fill="#000000">A</text>
<polyline fill="none" stroke="#000000" points="98.391,-73.5 98.391,-95.5 "/>
<text text-anchor="middle" x="111.0599" y="-80.3" font-family="Times,serif" font-size="14.00" fill="#000000">R</text>
<polyline fill="none" stroke="#000000" points="123.7289,-73.5 123.7289,-95.5 "/>
<text text-anchor="middle" x="136.0048" y="-80.3" font-family="Times,serif" font-size="14.00" fill="#000000">T</text>
</g>
<!-- art&#45;&gt;art1 -->
<g id="edge1" class="edge">
<title>art:f0&#45;&gt;art1:f0</title>
<path fill="none" stroke="#000000" d="M282.2806,-157.5C239.7922,-157.5 107.1308,-143.6966 87.6729,-105.2321"/>
<polygon fill="#000000" stroke="#000000" points="91.0666,-104.3754 85.2806,-95.5 84.269,-106.0464 91.0666,-104.3754"/>
<text text-anchor="middle" x="150.0892" y="-116.8" font-family="Times,serif" font-size="14.00" fill="#000000">1. swap A/A</text>
</g>
<!-- rat -->
<g id="node5" class="node">
<title>rat</title>
<polygon fill="none" stroke="#000000" points="311.2806,-73.5 311.2806,-95.5 387.2806,-95.5 387.2806,-73.5 311.2806,-73.5"/>
<text text-anchor="middle" x="323.9496" y="-80.3" font-family="Times,serif" font-size="14.00" fill="#000000">R</text>
<polyline fill="none" stroke="#000000" points="336.6185,-73.5 336.6185,-95.5 "/>
<text text-anchor="middle" x="349.6737" y="-80.3" font-family="Times,serif" font-size="14.00" fill="#000000">A</text>
<polyline fill="none" stroke="#000000" points="362.7289,-73.5 362.7289,-95.5 "/>
<text text-anchor="middle" x="375.0048" y="-80.3" font-family="Times,serif" font-size="14.00" fill="#000000">T</text>
</g>
<!-- art&#45;&gt;rat -->
<g id="edge7" class="edge">
<title>art:f1&#45;&gt;rat:f0</title>
<path fill="none" stroke="#000000" d="M321.2806,-146.5C321.2806,-130.1318 297.6009,-142.1863 289.4359,-128 280.4989,-112.4724 286.5082,-92.8305 301.1244,-86.5373"/>
<polygon fill="#000000" stroke="#000000" points="302.1643,-89.8985 311.2806,-84.5 300.7876,-83.0352 302.1643,-89.8985"/>
<text text-anchor="middle" x="324.703" y="-116.8" font-family="Times,serif" font-size="14.00" fill="#000000">7. swap A/R</text>
</g>
<!-- tra -->
<g id="node8" class="node">
<title>tra</title>
<polygon fill="none" stroke="#000000" points="529.2806,-73.5 529.2806,-95.5 605.2806,-95.5 605.2806,-73.5 529.2806,-73.5"/>
<text text-anchor="middle" x="541.5565" y="-80.3" font-family="Times,serif" font-size="14.00" fill="#000000">T</text>
<polyline fill="none" stroke="#000000" points="553.8324,-73.5 553.8324,-95.5 "/>
<text text-anchor="middle" x="566.5013" y="-80.3" font-family="Times,serif" font-size="14.00" fill="#000000">R</text>
<polyline fill="none" stroke="#000000" points="579.1703,-73.5 579.1703,-95.5 "/>
<text text-anchor="middle" x="592.2255" y="-80.3" font-family="Times,serif" font-size="14.00" fill="#000000">A</text>
</g>
<!-- art&#45;&gt;tra -->
<g id="edge13" class="edge">
<title>art:f2&#45;&gt;tra:f0</title>
<path fill="none" stroke="#000000" d="M358.2806,-157.5C437.3655,-157.5 446.0107,-90.6387 519.0422,-84.8928"/>
<polygon fill="#000000" stroke="#000000" points="519.4222,-88.3809 529.2806,-84.5 519.1538,-81.386 519.4222,-88.3809"/>
<text text-anchor="middle" x="489.8099" y="-116.8" font-family="Times,serif" font-size="14.00" fill="#000000">13. swap A/T</text>
</g>
<!-- art1&#45;&gt;art -->
<g id="edge6" class="edge">
<title>art1:f1&#45;&gt;art:f0</title>
<path fill="none" stroke="#c0c0c0" d="M111.2806,-95.5C111.2806,-113.3142 172.4579,-108.14 189.2806,-114 228.8376,-127.7792 235.6864,-152.9166 271.8416,-156.948"/>
<polygon fill="#c0c0c0" stroke="#c0c0c0" points="272.1098,-160.467 282.2806,-157.5 272.4794,-153.4768 272.1098,-160.467"/>
<text text-anchor="middle" x="222.5306" y="-116.8" font-family="Times,serif" font-size="14.00" fill="#c0c0c0">6.</text>
</g>
<!-- art2 -->
<g id="node3" class="node">
<title>art2</title>
<polygon fill="none" stroke="#ff0000" points="16.2806,-.5 16.2806,-22.5 92.2806,-22.5 92.2806,-.5 16.2806,-.5"/>
<text text-anchor="middle" x="29.3358" y="-7.3" font-family="Times,serif" font-size="14.00" fill="#000000">A</text>
<polyline fill="none" stroke="#ff0000" points="42.391,-.5 42.391,-22.5 "/>
<text text-anchor="middle" x="55.0599" y="-7.3" font-family="Times,serif" font-size="14.00" fill="#000000">R</text>
<polyline fill="none" stroke="#ff0000" points="67.7289,-.5 67.7289,-22.5 "/>
<text text-anchor="middle" x="80.0048" y="-7.3" font-family="Times,serif" font-size="14.00" fill="#000000">T</text>
</g>
<!-- art1&#45;&gt;art2 -->
<g id="edge2" class="edge">
<title>art1:f0&#45;&gt;art2:f0</title>
<path fill="none" stroke="#000000" d="M72.2806,-84.5C38.5861,-84.5 21.0647,-83.0811 2.4427,-55 -.9961,-49.8144 -.4506,-46.5086 2.4427,-41 6.8636,-32.5831 17.0402,-33.4853 23.5142,-31.0056"/>
<polygon fill="#000000" stroke="#000000" points="26.5661,-32.7412 29.2806,-22.5 20.7721,-28.8131 26.5661,-32.7412"/>
<text text-anchor="middle" x="37.6996" y="-43.8" font-family="Times,serif" font-size="14.00" fill="#000000">2. swap R/R</text>
</g>
<!-- atr -->
<g id="node4" class="node">
<title>atr</title>
<polygon fill="none" stroke="#ff0000" points="126.2806,-.5 126.2806,-22.5 202.2806,-22.5 202.2806,-.5 126.2806,-.5"/>
<text text-anchor="middle" x="139.3358" y="-7.3" font-family="Times,serif" font-size="14.00" fill="#000000">A</text>
<polyline fill="none" stroke="#ff0000" points="152.391,-.5 152.391,-22.5 "/>
<text text-anchor="middle" x="164.6669" y="-7.3" font-family="Times,serif" font-size="14.00" fill="#000000">T</text>
<polyline fill="none" stroke="#ff0000" points="176.9427,-.5 176.9427,-22.5 "/>
<text text-anchor="middle" x="189.6117" y="-7.3" font-family="Times,serif" font-size="14.00" fill="#000000">R</text>
</g>
<!-- art1&#45;&gt;atr -->
<g id="edge4" class="edge">
<title>art1:f2&#45;&gt;atr:f0</title>
<path fill="none" stroke="#000000" d="M136.2806,-73.5C136.2806,-64.5328 130.0565,-63.779 128.2289,-55 126.9607,-48.9084 126.5737,-46.998 128.2289,-41 129.5027,-36.3837 132.2657,-34.1531 134.7102,-31.8794"/>
<polygon fill="#000000" stroke="#000000" points="138.0464,-33.0227 139.2806,-22.5 131.7538,-29.9563 138.0464,-33.0227"/>
<text text-anchor="middle" x="162.3065" y="-43.8" font-family="Times,serif" font-size="14.00" fill="#000000">4. swap R/T</text>
</g>
<!-- art2&#45;&gt;art1 -->
<g id="edge3" class="edge">
<title>art2:f2&#45;&gt;art1:f1</title>
<path fill="none" stroke="#c0c0c0" d="M80.2806,-22.5C80.2806,-45.0882 102.7606,-46.9537 109.4343,-63.3899"/>
<polygon fill="#c0c0c0" stroke="#c0c0c0" points="106.041,-64.2915 111.2806,-73.5 112.9271,-63.0339 106.041,-64.2915"/>
<text text-anchor="middle" x="109.5306" y="-43.8" font-family="Times,serif" font-size="14.00" fill="#c0c0c0">3.</text>
</g>
<!-- atr&#45;&gt;art1 -->
<g id="edge5" class="edge">
<title>atr:f2&#45;&gt;art1:f2</title>
<path fill="none" stroke="#c0c0c0" d="M189.2806,-22.5C189.2806,-37.2757 203.492,-42.1036 196.2806,-55 185.8737,-73.6112 176.5416,-81.9174 158.5376,-83.9732"/>
<polygon fill="#c0c0c0" stroke="#c0c0c0" points="158.0879,-80.4916 148.2806,-84.5 158.447,-87.4824 158.0879,-80.4916"/>
<text text-anchor="middle" x="204.5306" y="-43.8" font-family="Times,serif" font-size="14.00" fill="#c0c0c0">5.</text>
</g>
<!-- rat&#45;&gt;art -->
<g id="edge12" class="edge">
<title>rat:f2&#45;&gt;art:f2</title>
<path fill="none" stroke="#c0c0c0" d="M375.2806,-95.5C375.2806,-119.8314 383.6726,-147.6832 368.5199,-155.4156"/>
<polygon fill="#c0c0c0" stroke="#c0c0c0" points="367.3815,-152.0755 358.2806,-157.5 368.7779,-158.9348 367.3815,-152.0755"/>
<text text-anchor="middle" x="387.0306" y="-116.8" font-family="Times,serif" font-size="14.00" fill="#c0c0c0">12.</text>
</g>
<!-- rat1 -->
<g id="node6" class="node">
<title>rat1</title>
<polygon fill="none" stroke="#ff0000" points="255.2806,-.5 255.2806,-22.5 331.2806,-22.5 331.2806,-.5 255.2806,-.5"/>
<text text-anchor="middle" x="267.9496" y="-7.3" font-family="Times,serif" font-size="14.00" fill="#000000">R</text>
<polyline fill="none" stroke="#ff0000" points="280.6185,-.5 280.6185,-22.5 "/>
<text text-anchor="middle" x="293.6737" y="-7.3" font-family="Times,serif" font-size="14.00" fill="#000000">A</text>
<polyline fill="none" stroke="#ff0000" points="306.7289,-.5 306.7289,-22.5 "/>
<text text-anchor="middle" x="319.0048" y="-7.3" font-family="Times,serif" font-size="14.00" fill="#000000">T</text>
</g>
<!-- rat&#45;&gt;rat1 -->
<g id="edge8" class="edge">
<title>rat:f0&#45;&gt;rat1:f0</title>
<path fill="none" stroke="#000000" d="M311.2806,-84.5C282.5117,-84.5 268.6711,-79.5443 253.6634,-55 250.4176,-49.6915 251.6216,-46.8777 253.6634,-41 255.544,-35.5866 259.7393,-33.6953 263.1551,-31.3788"/>
<polygon fill="#000000" stroke="#000000" points="266.3123,-32.9104 268.2806,-22.5 260.2499,-29.4107 266.3123,-32.9104"/>
<text text-anchor="middle" x="289.0892" y="-43.8" font-family="Times,serif" font-size="14.00" fill="#000000">8. swap A/A</text>
</g>
<!-- rta -->
<g id="node7" class="node">
<title>rta</title>
<polygon fill="none" stroke="#ff0000" points="388.2806,-.5 388.2806,-22.5 464.2806,-22.5 464.2806,-.5 388.2806,-.5"/>
<text text-anchor="middle" x="400.9496" y="-7.3" font-family="Times,serif" font-size="14.00" fill="#000000">R</text>
<polyline fill="none" stroke="#ff0000" points="413.6185,-.5 413.6185,-22.5 "/>
<text text-anchor="middle" x="425.8944" y="-7.3" font-family="Times,serif" font-size="14.00" fill="#000000">T</text>
<polyline fill="none" stroke="#ff0000" points="438.1703,-.5 438.1703,-22.5 "/>
<text text-anchor="middle" x="451.2255" y="-7.3" font-family="Times,serif" font-size="14.00" fill="#000000">A</text>
</g>
<!-- rat&#45;&gt;rta -->
<g id="edge10" class="edge">
<title>rat:f2&#45;&gt;rta:f0</title>
<path fill="none" stroke="#000000" d="M375.2806,-73.5C375.2806,-58.8896 373.2118,-53.8188 380.222,-41 383.8646,-34.3393 390.8876,-33.5527 395.8186,-31.1355"/>
<polygon fill="#000000" stroke="#000000" points="398.893,-32.8223 401.2806,-22.5 392.9771,-29.0804 398.893,-32.8223"/>
<text text-anchor="middle" x="417.8099" y="-43.8" font-family="Times,serif" font-size="14.00" fill="#000000">10. swap A/T</text>
</g>
<!-- rat1&#45;&gt;rat -->
<g id="edge9" class="edge">
<title>rat1:f2&#45;&gt;rat:f1</title>
<path fill="none" stroke="#c0c0c0" d="M319.2806,-22.5C319.2806,-44.8939 341.0354,-47.0615 347.4938,-63.4507"/>
<polygon fill="#c0c0c0" stroke="#c0c0c0" points="344.084,-64.2671 349.2806,-73.5 350.9759,-63.0417 344.084,-64.2671"/>
<text text-anchor="middle" x="347.5306" y="-43.8" font-family="Times,serif" font-size="14.00" fill="#c0c0c0">9.</text>
</g>
<!-- rta&#45;&gt;rat -->
<g id="edge11" class="edge">
<title>rta:f2&#45;&gt;rat:f2</title>
<path fill="none" stroke="#c0c0c0" d="M451.2806,-22.5C451.2806,-37.0534 463.2652,-42.8325 455.2806,-55 439.1833,-79.5303 423.9522,-83.7658 397.5397,-84.3988"/>
<polygon fill="#c0c0c0" stroke="#c0c0c0" points="397.2456,-80.9015 387.2806,-84.5 397.3147,-87.9011 397.2456,-80.9015"/>
<text text-anchor="middle" x="466.7743" y="-43.8" font-family="Times,serif" font-size="14.00" fill="#c0c0c0">11.</text>
</g>
<!-- tra&#45;&gt;art -->
<g id="edge18" class="edge">
<title>tra:f2&#45;&gt;art:f2</title>
<path fill="none" stroke="#c0c0c0" d="M592.2806,-95.5C592.2806,-146.2474 431.9107,-156.4242 368.5824,-157.4142"/>
<polygon fill="#c0c0c0" stroke="#c0c0c0" points="368.2511,-153.9168 358.2806,-157.5 368.3095,-160.9165 368.2511,-153.9168"/>
<text text-anchor="middle" x="592.0306" y="-116.8" font-family="Times,serif" font-size="14.00" fill="#c0c0c0">18.</text>
</g>
<!-- tra1 -->
<g id="node9" class="node">
<title>tra1</title>
<polygon fill="none" stroke="#ff0000" points="528.2806,-.5 528.2806,-22.5 604.2806,-22.5 604.2806,-.5 528.2806,-.5"/>
<text text-anchor="middle" x="540.5565" y="-7.3" font-family="Times,serif" font-size="14.00" fill="#000000">T</text>
<polyline fill="none" stroke="#ff0000" points="552.8324,-.5 552.8324,-22.5 "/>
<text text-anchor="middle" x="565.5013" y="-7.3" font-family="Times,serif" font-size="14.00" fill="#000000">R</text>
<polyline fill="none" stroke="#ff0000" points="578.1703,-.5 578.1703,-22.5 "/>
<text text-anchor="middle" x="591.2255" y="-7.3" font-family="Times,serif" font-size="14.00" fill="#000000">A</text>
</g>
<!-- tra&#45;&gt;tra1 -->
<g id="edge14" class="edge">
<title>tra:f0&#45;&gt;tra1:f0</title>
<path fill="none" stroke="#000000" d="M541.2806,-73.5C541.2806,-60.4374 524.0654,-66.7906 518.4427,-55 515.7645,-49.3837 515.8264,-46.6454 518.4427,-41 521.7857,-33.7868 529.4804,-33.3324 534.7813,-30.9004"/>
<polygon fill="#000000" stroke="#000000" points="537.7317,-32.7837 540.2806,-22.5 531.8751,-28.9496 537.7317,-32.7837"/>
<text text-anchor="middle" x="557.1996" y="-43.8" font-family="Times,serif" font-size="14.00" fill="#000000">14. swap R/R</text>
</g>
<!-- tar -->
<g id="node10" class="node">
<title>tar</title>
<polygon fill="none" stroke="#ff0000" points="669.2806,-.5 669.2806,-22.5 745.2806,-22.5 745.2806,-.5 669.2806,-.5"/>
<text text-anchor="middle" x="681.5565" y="-7.3" font-family="Times,serif" font-size="14.00" fill="#000000">T</text>
<polyline fill="none" stroke="#ff0000" points="693.8324,-.5 693.8324,-22.5 "/>
<text text-anchor="middle" x="706.8876" y="-7.3" font-family="Times,serif" font-size="14.00" fill="#000000">A</text>
<polyline fill="none" stroke="#ff0000" points="719.9427,-.5 719.9427,-22.5 "/>
<text text-anchor="middle" x="732.6117" y="-7.3" font-family="Times,serif" font-size="14.00" fill="#000000">R</text>
</g>
<!-- tra&#45;&gt;tar -->
<g id="edge16" class="edge">
<title>tra:f2&#45;&gt;tar:f0</title>
<path fill="none" stroke="#000000" d="M605.2806,-84.5C605.3488,-84.5 654.0428,-44.7971 673.4417,-28.9342"/>
<polygon fill="#000000" stroke="#000000" points="675.7715,-31.5499 681.2806,-22.5 671.3304,-26.1391 675.7715,-31.5499"/>
<text text-anchor="middle" x="695.5858" y="-43.8" font-family="Times,serif" font-size="14.00" fill="#000000">16. swap R/A</text>
</g>
<!-- tra1&#45;&gt;tra -->
<g id="edge15" class="edge">
<title>tra1:f2&#45;&gt;tra:f2</title>
<path fill="none" stroke="#c0c0c0" d="M591.2806,-22.5C591.2806,-30.8296 593.6118,-32.6973 594.2806,-41 594.7802,-47.2021 594.6155,-48.7868 594.2806,-55 594.0859,-58.6129 593.6788,-61.0226 593.2823,-63.2829"/>
<polygon fill="#c0c0c0" stroke="#c0c0c0" points="589.7731,-63.2062 592.2806,-73.5 596.7397,-63.8892 589.7731,-63.2062"/>
<text text-anchor="middle" x="604.0306" y="-43.8" font-family="Times,serif" font-size="14.00" fill="#c0c0c0">15.</text>
</g>
<!-- tar&#45;&gt;tra -->
<g id="edge17" class="edge">
<title>tar:f2&#45;&gt;tra:f2</title>
<path fill="none" stroke="#c0c0c0" d="M732.2806,-22.5C732.2806,-37.0059 744.332,-43.6645 735.2806,-55 718.6014,-75.8882 650.2939,-83.0993 615.347,-84.3086"/>
<polygon fill="#c0c0c0" stroke="#c0c0c0" points="615.2122,-80.8104 605.2806,-84.5 615.3454,-87.8091 615.2122,-80.8104"/>
<text text-anchor="middle" x="748.0306" y="-43.8" font-family="Times,serif" font-size="14.00" fill="#c0c0c0">17.</text>
</g>
</g>
</svg>
