<?xml version="1.0" encoding="UTF-8" standalone="no"?>
<!DOCTYPE svg PUBLIC "-//W3C//DTD SVG 1.1//EN"
 "http://www.w3.org/Graphics/SVG/1.1/DTD/svg11.dtd">
<!-- Generated by graphviz version 2.40.1 (20161225.0304)
 -->
<!-- Title: g Pages: 1 -->
<svg width="631pt" height="177pt"
 viewBox="0.00 0.00 631.22 177.00" xmlns="http://www.w3.org/2000/svg" xmlns:xlink="http://www.w3.org/1999/xlink">
<g id="graph0" class="graph" transform="scale(1 1) rotate(0) translate(4 173)">
<title>g</title>
<polygon fill="#ffffff" stroke="transparent" points="-4,4 -4,-173 627.2171,-173 627.2171,4 -4,4"/>
<!-- art -->
<g id="node1" class="node">
<title>art</title>
<polygon fill="none" stroke="#000000" points="222.2171,-146.5 222.2171,-168.5 298.2171,-168.5 298.2171,-146.5 222.2171,-146.5"/>
<text text-anchor="middle" x="235.2723" y="-153.3" font-family="Times,serif" font-size="14.00" fill="#000000">A</text>
<polyline fill="none" stroke="#000000" points="248.3275,-146.5 248.3275,-168.5 "/>
<text text-anchor="middle" x="260.9964" y="-153.3" font-family="Times,serif" font-size="14.00" fill="#000000">R</text>
<polyline fill="none" stroke="#000000" points="273.6653,-146.5 273.6653,-168.5 "/>
<text text-anchor="middle" x="285.9412" y="-153.3" font-family="Times,serif" font-size="14.00" fill="#000000">T</text>
</g>
<!-- art1 -->
<g id="node2" class="node">
<title>art1</title>
<polygon fill="none" stroke="#000000" points="65.2171,-73.5 65.2171,-95.5 141.2171,-95.5 141.2171,-73.5 65.2171,-73.5"/>
<text text-anchor="middle" x="78.2723" y="-80.3" font-family="Times,serif" font-size="14.00" fill="#000000">A</text>
<polyline fill="none" stroke="#000000" points="91.3275,-73.5 91.3275,-95.5 "/>
<text text-anchor="middle" x="103.9964" y="-80.3" font-family="Times,serif" font-size="14.00" fill="#000000">R</text>
<polyline fill="none" stroke="#000000" points="116.6653,-73.5 116.6653,-95.5 "/>
<text text-anchor="middle" x="128.9412" y="-80.3" font-family="Times,serif" font-size="14.00" fill="#000000">T</text>
</g>
<!-- art&#45;&gt;art1 -->
<g id="edge1" class="edge">
<title>art:f0&#45;&gt;art1:f0</title>
<path fill="none" stroke="#000000" d="M222.2171,-157.5C190.7794,-157.5 98.8286,-135.3857 81.1693,-105.4692"/>
<polygon fill="#000000" stroke="#000000" points="84.4126,-104.0946 78.2171,-95.5 77.7007,-106.0822 84.4126,-104.0946"/>
<text text-anchor="middle" x="144.0257" y="-116.8" font-family="Times,serif" font-size="14.00" fill="#000000">1. swap A/A</text>
</g>
<!-- rat -->
<g id="node5" class="node">
<title>rat</title>
<polygon fill="none" stroke="#000000" points="265.2171,-73.5 265.2171,-95.5 341.2171,-95.5 341.2171,-73.5 265.2171,-73.5"/>
<text text-anchor="middle" x="277.886" y="-80.3" font-family="Times,serif" font-size="14.00" fill="#000000">R</text>
<polyline fill="none" stroke="#000000" points="290.555,-73.5 290.555,-95.5 "/>
<text text-anchor="middle" x="303.6102" y="-80.3" font-family="Times,serif" font-size="14.00" fill="#000000">A</text>
<polyline fill="none" stroke="#000000" points="316.6653,-73.5 316.6653,-95.5 "/>
<text text-anchor="middle" x="328.9412" y="-80.3" font-family="Times,serif" font-size="14.00" fill="#000000">T</text>
</g>
<!-- art&#45;&gt;rat -->
<g id="edge7" class="edge">
<title>art:f1&#45;&gt;rat:f0</title>
<path fill="none" stroke="#000000" d="M261.2171,-146.5C261.2171,-126.5271 273.0966,-121.0041 276.9945,-105.7726"/>
<polygon fill="#000000" stroke="#000000" points="280.5107,-105.8436 278.2171,-95.5 273.5597,-105.0163 280.5107,-105.8436"/>
<text text-anchor="middle" x="308.6395" y="-116.8" font-family="Times,serif" font-size="14.00" fill="#000000">7. swap A/R</text>
</g>
<!-- tra -->
<g id="node8" class="node">
<title>tra</title>
<polygon fill="none" stroke="#000000" points="453.2171,-73.5 453.2171,-95.5 529.2171,-95.5 529.2171,-73.5 453.2171,-73.5"/>
<text text-anchor="middle" x="465.493" y="-80.3" font-family="Times,serif" font-size="14.00" fill="#000000">T</text>
<polyline fill="none" stroke="#000000" points="477.7689,-73.5 477.7689,-95.5 "/>
<text text-anchor="middle" x="490.4378" y="-80.3" font-family="Times,serif" font-size="14.00" fill="#000000">R</text>
<polyline fill="none" stroke="#000000" points="503.1067,-73.5 503.1067,-95.5 "/>
<text text-anchor="middle" x="516.1619" y="-80.3" font-family="Times,serif" font-size="14.00" fill="#000000">A</text>
</g>
<!-- art&#45;&gt;tra -->
<g id="edge11" class="edge">
<title>art:f2&#45;&gt;tra:f0</title>
<path fill="none" stroke="#000000" d="M298.2171,-157.5C370.7944,-157.5 376.6553,-91.1833 442.9779,-84.9662"/>
<polygon fill="#000000" stroke="#000000" points="443.3867,-88.4513 453.2171,-84.5 443.0682,-81.4585 443.3867,-88.4513"/>
<text text-anchor="middle" x="410.2464" y="-116.8" font-family="Times,serif" font-size="14.00" fill="#000000">swap A/T</text>
</g>
<!-- art1&#45;&gt;art -->
<g id="edge6" class="edge">
<title>art1:f1&#45;&gt;art:f0</title>
<path fill="none" stroke="#c0c0c0" d="M104.2171,-95.5C104.2171,-131.561 149.9234,-100.1462 183.2171,-114 204.6443,-122.9161 227.2866,-120.4513 233.5364,-136.3528"/>
<polygon fill="#c0c0c0" stroke="#c0c0c0" points="230.13,-137.2064 235.2171,-146.5 237.0359,-136.0625 230.13,-137.2064"/>
<text text-anchor="middle" x="229.7171" y="-116.8" font-family="Times,serif" font-size="14.00" fill="#000000">6</text>
</g>
<!-- art2 -->
<g id="node3" class="node">
<title>art2</title>
<polygon fill="none" stroke="#ff0000" points="15.2171,-.5 15.2171,-22.5 91.2171,-22.5 91.2171,-.5 15.2171,-.5"/>
<text text-anchor="middle" x="28.2723" y="-7.3" font-family="Times,serif" font-size="14.00" fill="#000000">A</text>
<polyline fill="none" stroke="#ff0000" points="41.3275,-.5 41.3275,-22.5 "/>
<text text-anchor="middle" x="53.9964" y="-7.3" font-family="Times,serif" font-size="14.00" fill="#000000">R</text>
<polyline fill="none" stroke="#ff0000" points="66.6653,-.5 66.6653,-22.5 "/>
<text text-anchor="middle" x="78.9412" y="-7.3" font-family="Times,serif" font-size="14.00" fill="#000000">T</text>
</g>
<!-- art1&#45;&gt;art2 -->
<g id="edge2" class="edge">
<title>art1:f0&#45;&gt;art2:f0</title>
<path fill="none" stroke="#000000" d="M65.2171,-84.5C34.3647,-84.5 18.9225,-81.0421 2.3792,-55 -.9572,-49.7479 -.4648,-46.5342 2.3792,-41 6.6157,-32.7562 16.4192,-33.4477 22.6586,-30.9055"/>
<polygon fill="#000000" stroke="#000000" points="25.6205,-32.7717 28.2171,-22.5 19.7817,-28.9105 25.6205,-32.7717"/>
<text text-anchor="middle" x="37.636" y="-43.8" font-family="Times,serif" font-size="14.00" fill="#000000">2. swap R/R</text>
</g>
<!-- atr -->
<g id="node4" class="node">
<title>atr</title>
<polygon fill="none" stroke="#ff0000" points="123.2171,-.5 123.2171,-22.5 199.2171,-22.5 199.2171,-.5 123.2171,-.5"/>
<text text-anchor="middle" x="136.2723" y="-7.3" font-family="Times,serif" font-size="14.00" fill="#000000">A</text>
<polyline fill="none" stroke="#ff0000" points="149.3275,-.5 149.3275,-22.5 "/>
<text text-anchor="middle" x="161.6033" y="-7.3" font-family="Times,serif" font-size="14.00" fill="#000000">T</text>
<polyline fill="none" stroke="#ff0000" points="173.8792,-.5 173.8792,-22.5 "/>
<text text-anchor="middle" x="186.5482" y="-7.3" font-family="Times,serif" font-size="14.00" fill="#000000">R</text>
</g>
<!-- art1&#45;&gt;atr -->
<g id="edge4" class="edge">
<title>art1:f2&#45;&gt;atr:f0</title>
<path fill="none" stroke="#000000" d="M129.2171,-73.5C129.2171,-64.9767 125.298,-63.4477 124.1653,-55 123.3385,-48.833 122.3939,-46.9647 124.1653,-41 125.6495,-36.0026 128.9581,-33.8632 131.7338,-31.4843"/>
<polygon fill="#000000" stroke="#000000" points="134.8837,-33.0106 136.2171,-22.5 128.6202,-29.885 134.8837,-33.0106"/>
<text text-anchor="middle" x="158.243" y="-43.8" font-family="Times,serif" font-size="14.00" fill="#000000">4. swap R/T</text>
</g>
<!-- art2&#45;&gt;art1 -->
<g id="edge3" class="edge">
<title>art2:f2&#45;&gt;art1:f1</title>
<path fill="none" stroke="#c0c0c0" d="M79.2171,-22.5C79.2171,-32.3607 94.4759,-50.2383 101.1516,-63.6064"/>
<polygon fill="#c0c0c0" stroke="#c0c0c0" points="97.9142,-64.9839 104.2171,-73.5 104.6006,-62.9121 97.9142,-64.9839"/>
<text text-anchor="middle" x="99.7171" y="-43.8" font-family="Times,serif" font-size="14.00" fill="#000000">3</text>
</g>
<!-- atr&#45;&gt;art1 -->
<g id="edge5" class="edge">
<title>atr:f2&#45;&gt;art1:f2</title>
<path fill="none" stroke="#c0c0c0" d="M186.2171,-22.5C186.2171,-37.1885 199.5562,-42.2764 192.2171,-55 180.9734,-74.4928 170.7287,-82.2689 151.4505,-84.0704"/>
<polygon fill="#c0c0c0" stroke="#c0c0c0" points="151.0615,-80.5835 141.2171,-84.5 151.3551,-87.5774 151.0615,-80.5835"/>
<text text-anchor="middle" x="198.7171" y="-43.8" font-family="Times,serif" font-size="14.00" fill="#000000">5</text>
</g>
<!-- rat1 -->
<g id="node6" class="node">
<title>rat1</title>
<polygon fill="none" stroke="#ff0000" points="245.2171,-.5 245.2171,-22.5 321.2171,-22.5 321.2171,-.5 245.2171,-.5"/>
<text text-anchor="middle" x="257.886" y="-7.3" font-family="Times,serif" font-size="14.00" fill="#000000">R</text>
<polyline fill="none" stroke="#ff0000" points="270.555,-.5 270.555,-22.5 "/>
<text text-anchor="middle" x="283.6102" y="-7.3" font-family="Times,serif" font-size="14.00" fill="#000000">A</text>
<polyline fill="none" stroke="#ff0000" points="296.6653,-.5 296.6653,-22.5 "/>
<text text-anchor="middle" x="308.9412" y="-7.3" font-family="Times,serif" font-size="14.00" fill="#000000">T</text>
</g>
<!-- rat&#45;&gt;rat1 -->
<g id="edge8" class="edge">
<title>rat:f0&#45;&gt;rat1:f0</title>
<path fill="none" stroke="#000000" d="M265.2171,-84.5C249.4717,-84.5 250.1539,-70.0725 245.5999,-55 243.8003,-49.0437 243.7654,-46.9456 245.5999,-41 247.1587,-35.9478 250.6222,-33.8512 253.5267,-31.5036"/>
<polygon fill="#000000" stroke="#000000" points="256.701,-32.9858 258.2171,-22.5 250.4928,-29.7517 256.701,-32.9858"/>
<text text-anchor="middle" x="281.0257" y="-43.8" font-family="Times,serif" font-size="14.00" fill="#000000">8. swap A/A</text>
</g>
<!-- rta -->
<g id="node7" class="node">
<title>rta</title>
<polygon fill="none" stroke="#ff0000" points="354.2171,-.5 354.2171,-22.5 430.2171,-22.5 430.2171,-.5 354.2171,-.5"/>
<text text-anchor="middle" x="366.886" y="-7.3" font-family="Times,serif" font-size="14.00" fill="#000000">R</text>
<polyline fill="none" stroke="#ff0000" points="379.555,-.5 379.555,-22.5 "/>
<text text-anchor="middle" x="391.8309" y="-7.3" font-family="Times,serif" font-size="14.00" fill="#000000">T</text>
<polyline fill="none" stroke="#ff0000" points="404.1067,-.5 404.1067,-22.5 "/>
<text text-anchor="middle" x="417.1619" y="-7.3" font-family="Times,serif" font-size="14.00" fill="#000000">A</text>
</g>
<!-- rat&#45;&gt;rta -->
<g id="edge10" class="edge">
<title>rat:f2&#45;&gt;rta:f0</title>
<path fill="none" stroke="#000000" d="M341.2171,-84.5C367.7126,-84.5 367.663,-59.2453 367.3118,-32.6909"/>
<polygon fill="#000000" stroke="#000000" points="370.8099,-32.467 367.2171,-22.5 363.8102,-32.5321 370.8099,-32.467"/>
<text text-anchor="middle" x="405.7464" y="-43.8" font-family="Times,serif" font-size="14.00" fill="#000000">10. swap A/T</text>
</g>
<!-- rat1&#45;&gt;rat -->
<g id="edge9" class="edge">
<title>rat1:f2&#45;&gt;rat:f1</title>
<path fill="none" stroke="#c0c0c0" d="M309.2171,-22.5C309.2171,-31.1438 313.8672,-32.4622 315.2171,-41 316.1888,-47.1459 316.9827,-49.0335 315.2171,-55 313.7397,-59.9925 310.4453,-62.1357 307.6815,-64.5174"/>
<polygon fill="#c0c0c0" stroke="#c0c0c0" points="304.5335,-62.9873 303.2171,-73.5 310.802,-66.1027 304.5335,-62.9873"/>
<text text-anchor="middle" x="320.7171" y="-43.8" font-family="Times,serif" font-size="14.00" fill="#000000">9</text>
</g>
<!-- tra1 -->
<g id="node9" class="node">
<title>tra1</title>
<polygon fill="none" stroke="#ff0000" points="453.2171,-.5 453.2171,-22.5 529.2171,-22.5 529.2171,-.5 453.2171,-.5"/>
<text text-anchor="middle" x="465.493" y="-7.3" font-family="Times,serif" font-size="14.00" fill="#000000">T</text>
<polyline fill="none" stroke="#ff0000" points="477.7689,-.5 477.7689,-22.5 "/>
<text text-anchor="middle" x="490.4378" y="-7.3" font-family="Times,serif" font-size="14.00" fill="#000000">R</text>
<polyline fill="none" stroke="#ff0000" points="503.1067,-.5 503.1067,-22.5 "/>
<text text-anchor="middle" x="516.1619" y="-7.3" font-family="Times,serif" font-size="14.00" fill="#000000">A</text>
</g>
<!-- tra&#45;&gt;tra1 -->
<g id="edge12" class="edge">
<title>tra:f0&#45;&gt;tra1:f0</title>
<path fill="none" stroke="#000000" d="M465.2171,-73.5C465.2171,-54.7292 465.2171,-47.6168 465.2171,-32.8535"/>
<polygon fill="#000000" stroke="#000000" points="468.7172,-32.5 465.2171,-22.5 461.7172,-32.5 468.7172,-32.5"/>
<text text-anchor="middle" x="492.636" y="-43.8" font-family="Times,serif" font-size="14.00" fill="#000000">swap R/R</text>
</g>
<!-- tar -->
<g id="node10" class="node">
<title>tar</title>
<polygon fill="none" stroke="#ff0000" points="547.2171,-.5 547.2171,-22.5 623.2171,-22.5 623.2171,-.5 547.2171,-.5"/>
<text text-anchor="middle" x="559.493" y="-7.3" font-family="Times,serif" font-size="14.00" fill="#000000">T</text>
<polyline fill="none" stroke="#ff0000" points="571.7689,-.5 571.7689,-22.5 "/>
<text text-anchor="middle" x="584.824" y="-7.3" font-family="Times,serif" font-size="14.00" fill="#000000">A</text>
<polyline fill="none" stroke="#ff0000" points="597.8792,-.5 597.8792,-22.5 "/>
<text text-anchor="middle" x="610.5482" y="-7.3" font-family="Times,serif" font-size="14.00" fill="#000000">R</text>
</g>
<!-- tra&#45;&gt;tar -->
<g id="edge13" class="edge">
<title>tra:f2&#45;&gt;tar:f0</title>
<path fill="none" stroke="#000000" d="M529.2171,-84.5C556.4808,-84.5 558.9774,-59.6025 559.1974,-32.5303"/>
<polygon fill="#000000" stroke="#000000" points="562.6974,-32.5069 559.2171,-22.5 555.6974,-32.4931 562.6974,-32.5069"/>
<text text-anchor="middle" x="586.0223" y="-43.8" font-family="Times,serif" font-size="14.00" fill="#000000">swap R/A</text>
</g>
</g>
</svg>
