<?xml version="1.0" encoding="UTF-8" standalone="no"?>
<!DOCTYPE svg PUBLIC "-//W3C//DTD SVG 1.1//EN"
 "http://www.w3.org/Graphics/SVG/1.1/DTD/svg11.dtd">
<!-- Generated by graphviz version 2.40.1 (20161225.0304)
 -->
<!-- Title: G Pages: 1 -->
<svg width="146pt" height="332pt"
 viewBox="0.00 0.00 145.52 332.00" xmlns="http://www.w3.org/2000/svg" xmlns:xlink="http://www.w3.org/1999/xlink">
<g id="graph0" class="graph" transform="scale(1 1) rotate(0) translate(4 328)">
<title>G</title>
<polygon fill="#ffffff" stroke="transparent" points="-4,4 -4,-328 141.517,-328 141.517,4 -4,4"/>
<!-- fib(5) -->
<g id="node1" class="node">
<title>fib(5)</title>
<ellipse fill="none" stroke="#000000" cx="68.7585" cy="-306" rx="29.5189" ry="18"/>
<text text-anchor="middle" x="68.7585" y="-301.8" font-family="Times,serif" font-size="14.00" fill="#000000">fib(5)</text>
</g>
<!-- fib(4) -->
<g id="node2" class="node">
<title>fib(4)</title>
<ellipse fill="none" stroke="#000000" cx="68.7585" cy="-234" rx="29.5189" ry="18"/>
<text text-anchor="middle" x="68.7585" y="-229.8" font-family="Times,serif" font-size="14.00" fill="#000000">fib(4)</text>
</g>
<!-- fib(5)&#45;&#45;fib(4) -->
<g id="edge1" class="edge">
<title>fib(5)&#45;&#45;fib(4)</title>
<path fill="none" stroke="#000000" d="M68.7585,-287.8314C68.7585,-277 68.7585,-263.2876 68.7585,-252.4133"/>
</g>
<!-- fib(3) -->
<g id="node3" class="node">
<title>fib(3)</title>
<ellipse fill="none" stroke="#000000" cx="68.7585" cy="-162" rx="29.5189" ry="18"/>
<text text-anchor="middle" x="68.7585" y="-157.8" font-family="Times,serif" font-size="14.00" fill="#000000">fib(3)</text>
</g>
<!-- fib(4)&#45;&#45;fib(3) -->
<g id="edge2" class="edge">
<title>fib(4)&#45;&#45;fib(3)</title>
<path fill="none" stroke="#000000" d="M68.7585,-215.8314C68.7585,-205 68.7585,-191.2876 68.7585,-180.4133"/>
</g>
<!-- fib(2) -->
<g id="node4" class="node">
<title>fib(2)</title>
<ellipse fill="none" stroke="#000000" cx="68.7585" cy="-90" rx="29.5189" ry="18"/>
<text text-anchor="middle" x="68.7585" y="-85.8" font-family="Times,serif" font-size="14.00" fill="#000000">fib(2)</text>
</g>
<!-- fib(3)&#45;&#45;fib(2) -->
<g id="edge3" class="edge">
<title>fib(3)&#45;&#45;fib(2)</title>
<path fill="none" stroke="#000000" d="M68.7585,-143.8314C68.7585,-133 68.7585,-119.2876 68.7585,-108.4133"/>
</g>
<!-- fib(1) -->
<g id="node5" class="node">
<title>fib(1)</title>
<ellipse fill="none" stroke="#000000" cx="29.7585" cy="-18" rx="29.5189" ry="18"/>
<text text-anchor="middle" x="29.7585" y="-13.8" font-family="Times,serif" font-size="14.00" fill="#000000">fib(1)</text>
</g>
<!-- fib(2)&#45;&#45;fib(1) -->
<g id="edge4" class="edge">
<title>fib(2)&#45;&#45;fib(1)</title>
<path fill="none" stroke="#000000" d="M59.3177,-72.5708C53.1859,-61.2506 45.2267,-46.5568 39.1124,-35.2687"/>
</g>
<!-- fib(0) -->
<g id="node6" class="node">
<title>fib(0)</title>
<ellipse fill="none" stroke="#000000" cx="107.7585" cy="-18" rx="29.5189" ry="18"/>
<text text-anchor="middle" x="107.7585" y="-13.8" font-family="Times,serif" font-size="14.00" fill="#000000">fib(0)</text>
</g>
<!-- fib(2)&#45;&#45;fib(0) -->
<g id="edge5" class="edge">
<title>fib(2)&#45;&#45;fib(0)</title>
<path fill="none" stroke="#000000" d="M78.1993,-72.5708C84.3311,-61.2506 92.2902,-46.5568 98.4046,-35.2687"/>
</g>
</g>
</svg>
