<?xml version="1.0" encoding="UTF-8" standalone="no"?>
<!DOCTYPE svg PUBLIC "-//W3C//DTD SVG 1.1//EN"
 "http://www.w3.org/Graphics/SVG/1.1/DTD/svg11.dtd">
<!-- Generated by graphviz version 2.40.1 (20161225.0304)
 -->
<!-- Title: g Pages: 1 -->
<svg width="765pt" height="177pt"
 viewBox="0.00 0.00 764.75 177.00" xmlns="http://www.w3.org/2000/svg" xmlns:xlink="http://www.w3.org/1999/xlink">
<g id="graph0" class="graph" transform="scale(1 1) rotate(0) translate(4 173)">
<title>g</title>
<polygon fill="#ffffff" stroke="transparent" points="-4,4 -4,-173 760.7451,-173 760.7451,4 -4,4"/>
<!-- art -->
<g id="node1" class="node">
<title>art</title>
<polygon fill="none" stroke="#000000" points="278.7451,-146.5 278.7451,-168.5 361.7451,-168.5 361.7451,-146.5 278.7451,-146.5"/>
<text text-anchor="middle" x="295.3002" y="-153.3" font-family="Times,serif" font-size="14.00" fill="#000000">A*</text>
<polyline fill="none" stroke="#000000" points="311.8554,-146.5 311.8554,-168.5 "/>
<text text-anchor="middle" x="324.5244" y="-153.3" font-family="Times,serif" font-size="14.00" fill="#000000">R</text>
<polyline fill="none" stroke="#000000" points="337.1933,-146.5 337.1933,-168.5 "/>
<text text-anchor="middle" x="349.4692" y="-153.3" font-family="Times,serif" font-size="14.00" fill="#000000">T</text>
</g>
<!-- art1 -->
<g id="node2" class="node">
<title>art1</title>
<polygon fill="none" stroke="#000000" points="67.7451,-73.5 67.7451,-95.5 150.7451,-95.5 150.7451,-73.5 67.7451,-73.5"/>
<text text-anchor="middle" x="80.8002" y="-80.3" font-family="Times,serif" font-size="14.00" fill="#000000">A</text>
<polyline fill="none" stroke="#000000" points="93.8554,-73.5 93.8554,-95.5 "/>
<text text-anchor="middle" x="110.0244" y="-80.3" font-family="Times,serif" font-size="14.00" fill="#000000">R*</text>
<polyline fill="none" stroke="#000000" points="126.1933,-73.5 126.1933,-95.5 "/>
<text text-anchor="middle" x="138.4692" y="-80.3" font-family="Times,serif" font-size="14.00" fill="#000000">T</text>
</g>
<!-- art&#45;&gt;art1 -->
<g id="edge1" class="edge">
<title>art:f0&#45;&gt;art1:f0</title>
<path fill="none" stroke="#000000" d="M278.2451,-157.5C235.7566,-157.5 103.0952,-143.6966 83.6373,-105.2321"/>
<polygon fill="#000000" stroke="#000000" points="87.031,-104.3754 81.2451,-95.5 80.2334,-106.0464 87.031,-104.3754"/>
<text text-anchor="middle" x="146.0537" y="-116.8" font-family="Times,serif" font-size="14.00" fill="#000000">1. swap A/A</text>
</g>
<!-- rat -->
<g id="node5" class="node">
<title>rat</title>
<polygon fill="none" stroke="#000000" points="305.7451,-73.5 305.7451,-95.5 388.7451,-95.5 388.7451,-73.5 305.7451,-73.5"/>
<text text-anchor="middle" x="318.414" y="-80.3" font-family="Times,serif" font-size="14.00" fill="#000000">R</text>
<polyline fill="none" stroke="#000000" points="331.083,-73.5 331.083,-95.5 "/>
<text text-anchor="middle" x="347.6381" y="-80.3" font-family="Times,serif" font-size="14.00" fill="#000000">A*</text>
<polyline fill="none" stroke="#000000" points="364.1933,-73.5 364.1933,-95.5 "/>
<text text-anchor="middle" x="376.4692" y="-80.3" font-family="Times,serif" font-size="14.00" fill="#000000">T</text>
</g>
<!-- art&#45;&gt;rat -->
<g id="edge7" class="edge">
<title>art:f1&#45;&gt;rat:f0</title>
<path fill="none" stroke="#000000" d="M324.2451,-146.5C324.2451,-130.1318 300.5654,-142.1863 292.4003,-128 289.2965,-122.6072 289.556,-119.534 292.4003,-114 296.6381,-105.7551 306.4442,-106.4479 312.6851,-103.9061"/>
<polygon fill="#000000" stroke="#000000" points="315.6476,-105.7715 318.2451,-95.5 309.8091,-101.9098 315.6476,-105.7715"/>
<text text-anchor="middle" x="327.6674" y="-116.8" font-family="Times,serif" font-size="14.00" fill="#000000">7. swap A/R</text>
</g>
<!-- tra -->
<g id="node8" class="node">
<title>tra</title>
<polygon fill="none" stroke="#000000" points="525.7451,-73.5 525.7451,-95.5 608.7451,-95.5 608.7451,-73.5 525.7451,-73.5"/>
<text text-anchor="middle" x="538.0209" y="-80.3" font-family="Times,serif" font-size="14.00" fill="#000000">T</text>
<polyline fill="none" stroke="#000000" points="550.2968,-73.5 550.2968,-95.5 "/>
<text text-anchor="middle" x="566.4658" y="-80.3" font-family="Times,serif" font-size="14.00" fill="#000000">R*</text>
<polyline fill="none" stroke="#000000" points="582.6347,-73.5 582.6347,-95.5 "/>
<text text-anchor="middle" x="595.6899" y="-80.3" font-family="Times,serif" font-size="14.00" fill="#000000">A</text>
</g>
<!-- art&#45;&gt;tra -->
<g id="edge13" class="edge">
<title>art:f2&#45;&gt;tra:f0</title>
<path fill="none" stroke="#000000" d="M362.2451,-157.5C438.0571,-157.5 445.3343,-90.9113 514.9889,-84.9287"/>
<polygon fill="#000000" stroke="#000000" points="515.4,-88.4147 525.2451,-84.5 515.1076,-81.4208 515.4,-88.4147"/>
<text text-anchor="middle" x="489.7744" y="-116.8" font-family="Times,serif" font-size="14.00" fill="#000000">13. swap A/T</text>
</g>
<!-- art1&#45;&gt;art -->
<g id="edge6" class="edge">
<title>art1:f1&#45;&gt;art:f0</title>
<path fill="none" stroke="#c0c0c0" d="M110.2451,-95.5C110.2451,-129.8324 152.8743,-102.5611 185.2451,-114 224.7399,-127.9563 231.6406,-152.9457 267.8048,-156.9516"/>
<polygon fill="#c0c0c0" stroke="#c0c0c0" points="268.0752,-160.4706 278.2451,-157.5 268.4425,-153.4802 268.0752,-160.4706"/>
<text text-anchor="middle" x="218.4951" y="-116.8" font-family="Times,serif" font-size="14.00" fill="#c0c0c0">6.</text>
</g>
<!-- art2 -->
<g id="node3" class="node">
<title>art2</title>
<polygon fill="none" stroke="#ff0000" points="16.2451,-.5 16.2451,-22.5 92.2451,-22.5 92.2451,-.5 16.2451,-.5"/>
<text text-anchor="middle" x="29.3002" y="-7.3" font-family="Times,serif" font-size="14.00" fill="#000000">A</text>
<polyline fill="none" stroke="#ff0000" points="42.3554,-.5 42.3554,-22.5 "/>
<text text-anchor="middle" x="55.0244" y="-7.3" font-family="Times,serif" font-size="14.00" fill="#000000">R</text>
<polyline fill="none" stroke="#ff0000" points="67.6933,-.5 67.6933,-22.5 "/>
<text text-anchor="middle" x="79.9692" y="-7.3" font-family="Times,serif" font-size="14.00" fill="#000000">T</text>
</g>
<!-- art1&#45;&gt;art2 -->
<g id="edge2" class="edge">
<title>art1:f0&#45;&gt;art2:f0</title>
<path fill="none" stroke="#000000" d="M67.2451,-84.5C35.5858,-84.5 19.5423,-81.6214 2.4072,-55 -.9605,-49.7679 -.4862,-46.5086 2.4072,-41 6.8281,-32.5831 17.0047,-33.4853 23.4787,-31.0056"/>
<polygon fill="#000000" stroke="#000000" points="26.5305,-32.7412 29.2451,-22.5 20.7365,-28.8131 26.5305,-32.7412"/>
<text text-anchor="middle" x="37.664" y="-43.8" font-family="Times,serif" font-size="14.00" fill="#000000">2. swap R/R</text>
</g>
<!-- atr -->
<g id="node4" class="node">
<title>atr</title>
<polygon fill="none" stroke="#ff0000" points="126.2451,-.5 126.2451,-22.5 202.2451,-22.5 202.2451,-.5 126.2451,-.5"/>
<text text-anchor="middle" x="139.3002" y="-7.3" font-family="Times,serif" font-size="14.00" fill="#000000">A</text>
<polyline fill="none" stroke="#ff0000" points="152.3554,-.5 152.3554,-22.5 "/>
<text text-anchor="middle" x="164.6313" y="-7.3" font-family="Times,serif" font-size="14.00" fill="#000000">T</text>
<polyline fill="none" stroke="#ff0000" points="176.9072,-.5 176.9072,-22.5 "/>
<text text-anchor="middle" x="189.5761" y="-7.3" font-family="Times,serif" font-size="14.00" fill="#000000">R</text>
</g>
<!-- art1&#45;&gt;atr -->
<g id="edge4" class="edge">
<title>art1:f2&#45;&gt;atr:f0</title>
<path fill="none" stroke="#000000" d="M138.2451,-73.5C138.2451,-64.1425 130.498,-64.0692 128.1933,-55 126.6608,-48.9695 126.5381,-46.998 128.1933,-41 129.4672,-36.3837 132.2301,-34.1531 134.6746,-31.8794"/>
<polygon fill="#000000" stroke="#000000" points="138.0109,-33.0227 139.2451,-22.5 131.7182,-29.9563 138.0109,-33.0227"/>
<text text-anchor="middle" x="162.2709" y="-43.8" font-family="Times,serif" font-size="14.00" fill="#000000">4. swap R/T</text>
</g>
<!-- art2&#45;&gt;art1 -->
<g id="edge3" class="edge">
<title>art2:f2&#45;&gt;art1:f1</title>
<path fill="none" stroke="#c0c0c0" d="M80.2451,-22.5C80.2451,-38.3169 86.3632,-41.5867 94.7451,-55 97.9425,-60.1169 102.4472,-61.9368 105.7767,-64.4589"/>
<polygon fill="#c0c0c0" stroke="#c0c0c0" points="102.6766,-66.0859 110.2451,-73.5 108.952,-62.9844 102.6766,-66.0859"/>
<text text-anchor="middle" x="100.4951" y="-43.8" font-family="Times,serif" font-size="14.00" fill="#c0c0c0">3.</text>
</g>
<!-- atr&#45;&gt;art1 -->
<g id="edge5" class="edge">
<title>atr:f2&#45;&gt;art1:f2</title>
<path fill="none" stroke="#c0c0c0" d="M189.2451,-22.5C189.2451,-37.2757 203.2674,-41.9997 196.2451,-55 186.6553,-72.7533 178.2372,-81.5494 161.4758,-83.8647"/>
<polygon fill="#c0c0c0" stroke="#c0c0c0" points="161.0089,-80.3869 151.2451,-84.5 161.4428,-87.3734 161.0089,-80.3869"/>
<text text-anchor="middle" x="203.4951" y="-43.8" font-family="Times,serif" font-size="14.00" fill="#c0c0c0">5.</text>
</g>
<!-- rat&#45;&gt;art -->
<g id="edge12" class="edge">
<title>rat:f2&#45;&gt;art:f2</title>
<path fill="none" stroke="#c0c0c0" d="M376.2451,-95.5C376.2451,-111.4087 368.9267,-114.0688 361.2451,-128 358.7311,-132.5593 355.5015,-134.7296 353.0261,-137.2318"/>
<polygon fill="#c0c0c0" stroke="#c0c0c0" points="349.7818,-135.9188 349.2451,-146.5 356.2632,-138.563 349.7818,-135.9188"/>
<text text-anchor="middle" x="379.9951" y="-116.8" font-family="Times,serif" font-size="14.00" fill="#c0c0c0">12.</text>
</g>
<!-- rat1 -->
<g id="node6" class="node">
<title>rat1</title>
<polygon fill="none" stroke="#ff0000" points="255.2451,-.5 255.2451,-22.5 331.2451,-22.5 331.2451,-.5 255.2451,-.5"/>
<text text-anchor="middle" x="267.914" y="-7.3" font-family="Times,serif" font-size="14.00" fill="#000000">R</text>
<polyline fill="none" stroke="#ff0000" points="280.583,-.5 280.583,-22.5 "/>
<text text-anchor="middle" x="293.6381" y="-7.3" font-family="Times,serif" font-size="14.00" fill="#000000">A</text>
<polyline fill="none" stroke="#ff0000" points="306.6933,-.5 306.6933,-22.5 "/>
<text text-anchor="middle" x="318.9692" y="-7.3" font-family="Times,serif" font-size="14.00" fill="#000000">T</text>
</g>
<!-- rat&#45;&gt;rat1 -->
<g id="edge8" class="edge">
<title>rat:f0&#45;&gt;rat1:f0</title>
<path fill="none" stroke="#000000" d="M305.2451,-84.5C278.8218,-84.5 266.8897,-77.8542 253.6279,-55 250.505,-49.6182 251.5861,-46.8777 253.6279,-41 255.5084,-35.5866 259.7037,-33.6953 263.1196,-31.3788"/>
<polygon fill="#000000" stroke="#000000" points="266.2767,-32.9104 268.2451,-22.5 260.2143,-29.4107 266.2767,-32.9104"/>
<text text-anchor="middle" x="289.0537" y="-43.8" font-family="Times,serif" font-size="14.00" fill="#000000">8. swap A/A</text>
</g>
<!-- rta -->
<g id="node7" class="node">
<title>rta</title>
<polygon fill="none" stroke="#ff0000" points="388.2451,-.5 388.2451,-22.5 464.2451,-22.5 464.2451,-.5 388.2451,-.5"/>
<text text-anchor="middle" x="400.914" y="-7.3" font-family="Times,serif" font-size="14.00" fill="#000000">R</text>
<polyline fill="none" stroke="#ff0000" points="413.583,-.5 413.583,-22.5 "/>
<text text-anchor="middle" x="425.8588" y="-7.3" font-family="Times,serif" font-size="14.00" fill="#000000">T</text>
<polyline fill="none" stroke="#ff0000" points="438.1347,-.5 438.1347,-22.5 "/>
<text text-anchor="middle" x="451.1899" y="-7.3" font-family="Times,serif" font-size="14.00" fill="#000000">A</text>
</g>
<!-- rat&#45;&gt;rta -->
<g id="edge10" class="edge">
<title>rat:f2&#45;&gt;rta:f0</title>
<path fill="none" stroke="#000000" d="M376.2451,-73.5C376.2451,-58.9497 373.3987,-53.87 380.1865,-41 383.728,-34.2851 390.7731,-33.5104 395.7368,-31.1107"/>
<polygon fill="#000000" stroke="#000000" points="398.8046,-32.8099 401.2451,-22.5 392.9079,-29.0378 398.8046,-32.8099"/>
<text text-anchor="middle" x="417.7744" y="-43.8" font-family="Times,serif" font-size="14.00" fill="#000000">10. swap A/T</text>
</g>
<!-- rat1&#45;&gt;rat -->
<g id="edge9" class="edge">
<title>rat1:f2&#45;&gt;rat:f1</title>
<path fill="none" stroke="#c0c0c0" d="M319.2451,-22.5C319.2451,-44.5198 339.5495,-47.269 345.5774,-63.5678"/>
<polygon fill="#c0c0c0" stroke="#c0c0c0" points="342.1374,-64.2176 347.2451,-73.5 349.0408,-63.0585 342.1374,-64.2176"/>
<text text-anchor="middle" x="345.4951" y="-43.8" font-family="Times,serif" font-size="14.00" fill="#c0c0c0">9.</text>
</g>
<!-- rta&#45;&gt;rat -->
<g id="edge11" class="edge">
<title>rta:f2&#45;&gt;rat:f2</title>
<path fill="none" stroke="#c0c0c0" d="M451.2451,-22.5C451.2451,-37.0534 463.1626,-42.7887 455.2451,-55 439.6772,-79.0106 424.9736,-83.6521 399.2449,-84.3802"/>
<polygon fill="#c0c0c0" stroke="#c0c0c0" points="399.2024,-80.8804 389.2451,-84.5 399.2863,-87.8798 399.2024,-80.8804"/>
<text text-anchor="middle" x="466.7387" y="-43.8" font-family="Times,serif" font-size="14.00" fill="#c0c0c0">11.</text>
</g>
<!-- tra&#45;&gt;art -->
<g id="edge18" class="edge">
<title>tra:f2&#45;&gt;art:f2</title>
<path fill="none" stroke="#c0c0c0" d="M595.2451,-95.5C595.2451,-146.0447 435.574,-156.4012 372.5051,-157.4123"/>
<polygon fill="#c0c0c0" stroke="#c0c0c0" points="372.2147,-153.9145 362.2451,-157.5 372.2747,-160.9143 372.2147,-153.9145"/>
<text text-anchor="middle" x="594.9951" y="-116.8" font-family="Times,serif" font-size="14.00" fill="#c0c0c0">18.</text>
</g>
<!-- tra1 -->
<g id="node9" class="node">
<title>tra1</title>
<polygon fill="none" stroke="#ff0000" points="528.2451,-.5 528.2451,-22.5 604.2451,-22.5 604.2451,-.5 528.2451,-.5"/>
<text text-anchor="middle" x="540.5209" y="-7.3" font-family="Times,serif" font-size="14.00" fill="#000000">T</text>
<polyline fill="none" stroke="#ff0000" points="552.7968,-.5 552.7968,-22.5 "/>
<text text-anchor="middle" x="565.4658" y="-7.3" font-family="Times,serif" font-size="14.00" fill="#000000">R</text>
<polyline fill="none" stroke="#ff0000" points="578.1347,-.5 578.1347,-22.5 "/>
<text text-anchor="middle" x="591.1899" y="-7.3" font-family="Times,serif" font-size="14.00" fill="#000000">A</text>
</g>
<!-- tra&#45;&gt;tra1 -->
<g id="edge14" class="edge">
<title>tra:f0&#45;&gt;tra1:f0</title>
<path fill="none" stroke="#000000" d="M538.2451,-73.5C538.2451,-61.4442 523.2143,-66.0559 518.4072,-55 515.9261,-49.2938 515.7908,-46.6454 518.4072,-41 521.7501,-33.7868 529.4448,-33.3324 534.7457,-30.9004"/>
<polygon fill="#000000" stroke="#000000" points="537.6961,-32.7837 540.2451,-22.5 531.8395,-28.9496 537.6961,-32.7837"/>
<text text-anchor="middle" x="557.164" y="-43.8" font-family="Times,serif" font-size="14.00" fill="#000000">14. swap R/R</text>
</g>
<!-- tar -->
<g id="node10" class="node">
<title>tar</title>
<polygon fill="none" stroke="#ff0000" points="669.2451,-.5 669.2451,-22.5 745.2451,-22.5 745.2451,-.5 669.2451,-.5"/>
<text text-anchor="middle" x="681.5209" y="-7.3" font-family="Times,serif" font-size="14.00" fill="#000000">T</text>
<polyline fill="none" stroke="#ff0000" points="693.7968,-.5 693.7968,-22.5 "/>
<text text-anchor="middle" x="706.852" y="-7.3" font-family="Times,serif" font-size="14.00" fill="#000000">A</text>
<polyline fill="none" stroke="#ff0000" points="719.9072,-.5 719.9072,-22.5 "/>
<text text-anchor="middle" x="732.5761" y="-7.3" font-family="Times,serif" font-size="14.00" fill="#000000">R</text>
</g>
<!-- tra&#45;&gt;tar -->
<g id="edge16" class="edge">
<title>tra:f2&#45;&gt;tar:f0</title>
<path fill="none" stroke="#000000" d="M609.2451,-84.5C638.4961,-84.5 636.3362,-59.9314 658.6347,-41 664.9756,-35.6166 672.4716,-34.867 677.0403,-31.6097"/>
<polygon fill="#000000" stroke="#000000" points="680.232,-33.0463 681.2451,-22.5 673.8764,-30.1127 680.232,-33.0463"/>
<text text-anchor="middle" x="697.5502" y="-43.8" font-family="Times,serif" font-size="14.00" fill="#000000">16. swap R/A</text>
</g>
<!-- tra1&#45;&gt;tra -->
<g id="edge15" class="edge">
<title>tra1:f2&#45;&gt;tra:f2</title>
<path fill="none" stroke="#c0c0c0" d="M591.2451,-22.5C591.2451,-30.8296 593.4486,-32.7085 594.2451,-41 595.2382,-51.3393 595.3203,-56.1398 595.2879,-63.3882"/>
<polygon fill="#c0c0c0" stroke="#c0c0c0" points="591.7876,-63.4852 595.2451,-73.5 598.7875,-63.515 591.7876,-63.4852"/>
<text text-anchor="middle" x="603.9951" y="-43.8" font-family="Times,serif" font-size="14.00" fill="#c0c0c0">15.</text>
</g>
<!-- tar&#45;&gt;tra -->
<g id="edge17" class="edge">
<title>tar:f2&#45;&gt;tra:f2</title>
<path fill="none" stroke="#c0c0c0" d="M732.2451,-22.5C732.2451,-37.0059 744.2576,-43.6337 735.2451,-55 719.1927,-75.2447 653.491,-82.9243 619.4559,-84.2754"/>
<polygon fill="#c0c0c0" stroke="#c0c0c0" points="619.1656,-80.7808 609.2451,-84.5 619.3196,-87.7792 619.1656,-80.7808"/>
<text text-anchor="middle" x="747.9951" y="-43.8" font-family="Times,serif" font-size="14.00" fill="#c0c0c0">17.</text>
</g>
</g>
</svg>
